<svg width="238" height="40" viewBox="0 0 238 40" fill="none" xmlns="http://www.w3.org/2000/svg">
<path d="M0 18.0711V0.0507812H16.1356V18.0711H11.3958V4.26397H4.73983V18.0711H0Z" fill="#262152"/>
<path d="M42.6585 0V4.11168H34.4898V6.85279H41.9021V10.9645H34.4898V13.9086H42.8097V18.0203H29.75V0H42.6585Z" fill="#262152"/>
<path d="M62.9291 0C64.0384 0 65.0469 0.101526 66.0049 0.304572C66.963 0.507617 67.7698 0.862947 68.4757 1.3198C69.1816 1.77665 69.7363 2.43654 70.1397 3.24873C70.5431 4.06091 70.7448 5.02539 70.7448 6.1929C70.7448 7.36041 70.5431 8.37563 70.1397 9.13705C69.7363 9.94924 69.1816 10.5584 68.4757 11.0152C67.7698 11.4721 66.963 11.8274 66.0049 12.0305C65.0469 12.2335 64.0384 12.335 62.9291 12.335H60.5592V18.0203H55.8193V0H62.9291ZM65.8537 6.1929C65.8537 5.78681 65.8032 5.43148 65.652 5.17767C65.5007 4.92386 65.299 4.72081 65.0469 4.56853C64.7948 4.41624 64.4922 4.31472 64.1897 4.26396C63.8871 4.21319 63.5342 4.16244 63.1812 4.16244H60.6096V8.27412H63.1812C63.5342 8.27412 63.8871 8.22335 64.1897 8.17259C64.4922 8.12183 64.7948 8.0203 65.0469 7.86802C65.299 7.71573 65.5007 7.5127 65.652 7.25889C65.7528 6.95432 65.8537 6.59899 65.8537 6.1929Z" fill="#262152"/>
<path d="M83.1992 18.0711V0.0507812H96.1077V4.31474H87.8886V18.1218H83.1992V18.0711Z" fill="#262152"/>
<path d="M104.024 18.0711L111.084 0.0507812H116.227L123.286 18.0711H118.446L117.437 15.2284H110.025L109.016 18.0711H104.024ZM111.336 11.3706H115.924L114.059 6.14215C113.958 5.9391 113.907 5.6853 113.807 5.43149C113.756 5.17769 113.655 4.82235 113.554 4.31474C113.454 4.77159 113.403 5.17769 113.302 5.43149C113.252 5.6853 113.151 5.9391 113.05 6.14215L111.336 11.3706Z" fill="#262152"/>
<path d="M155.052 0V18.0203H150.313V8.4264L146.48 14.3655H143.758L139.925 8.4264V18.0203H135.186V0H139.673L145.119 8.47716L150.565 0H155.052Z" fill="#262152"/>
<path d="M181.626 0V4.11168H173.458V6.85279H180.819V10.9645H173.407V13.9086H181.727V18.0203H168.718V0H181.626Z" fill="#262152"/>
<path d="M210.872 0V18.0203H206.132V11.1167H199.476V18.0203H194.736V0H199.476V6.90355H206.132V0H210.872Z" fill="#262152"/>
<path d="M238 0V4.26396H232.958V18.0711H228.218V4.26396H223.125V0H238Z" fill="#262152"/>
<path d="M3.73184 34.6698C4.2865 34.6698 4.74032 34.7206 5.14371 34.8729C5.5471 34.9744 5.84964 35.1775 6.15218 35.3805C6.4043 35.5836 6.60599 35.8374 6.70684 36.1419C6.80768 36.4465 6.90854 36.7511 6.90854 37.1064C6.90854 37.5125 6.85811 37.9186 6.70684 38.2231C6.55557 38.5785 6.35387 38.8323 6.10175 39.0861C5.84964 39.3399 5.49667 39.4922 5.09328 39.6445C4.68989 39.7967 4.23608 39.8475 3.73184 39.8475H0.756836V30.7104H6.60599V31.6749H1.96701V34.6191H3.73184V34.6698ZM3.73184 38.883C4.08481 38.883 4.38735 38.8323 4.63947 38.7815C4.89159 38.68 5.09328 38.5785 5.24455 38.4262C5.39582 38.2739 5.49667 38.1216 5.59752 37.9186C5.64794 37.7155 5.69836 37.5125 5.69836 37.2587C5.69836 37.0049 5.64794 36.8018 5.59752 36.5988C5.54709 36.3957 5.39582 36.2434 5.24455 36.0912C5.09328 35.9389 4.89159 35.8374 4.63947 35.7866C4.38735 35.7358 4.08481 35.6851 3.73184 35.6851H1.96701V38.9338H3.73184V38.883Z" fill="#A57D4E"/>
<path d="M13.665 34.8221C13.7154 34.213 13.8667 33.6546 14.0684 33.147C14.2701 32.6394 14.5726 32.1825 14.9256 31.8272C15.2785 31.4719 15.6819 31.1673 16.1862 30.9642C16.6904 30.7612 17.1946 30.6597 17.7997 30.6597C18.4048 30.6597 19.0099 30.7612 19.5141 31.015C20.0184 31.2688 20.4722 31.5734 20.8251 31.9795C21.1781 32.3856 21.4807 32.8932 21.6823 33.4515C21.884 34.0099 21.9849 34.6698 21.9849 35.3297C21.9849 35.9896 21.884 36.6495 21.6823 37.2079C21.4807 37.7663 21.2285 38.2739 20.8251 38.68C20.4722 39.0861 20.0184 39.3906 19.5141 39.6444C19.0099 39.8475 18.4552 39.9998 17.7997 39.9998C17.1946 39.9998 16.6904 39.8983 16.1862 39.6952C15.6819 39.4922 15.2785 39.1876 14.9256 38.8323C14.5726 38.4769 14.2701 38.0201 14.0684 37.5125C13.8667 37.0048 13.7154 36.4465 13.665 35.8373H11.6985V39.8983H10.4883V30.7612H11.6985V34.8221H13.665ZM17.7997 38.9338C18.2535 38.9338 18.6569 38.8323 19.0099 38.68C19.3629 38.5277 19.6654 38.2739 19.9175 37.9693C20.1696 37.6648 20.3713 37.2587 20.4722 36.8526C20.6235 36.3957 20.6739 35.8881 20.6739 35.3297C20.6739 34.7713 20.6235 34.2637 20.4722 33.8069C20.3209 33.35 20.1192 32.9947 19.9175 32.6394C19.6654 32.3348 19.3629 32.081 19.0099 31.9287C18.6569 31.7764 18.2535 31.6749 17.7997 31.6749C17.3459 31.6749 16.9425 31.7764 16.5896 31.9287C16.2366 32.081 15.934 32.3348 15.6819 32.6394C15.4298 32.9439 15.2281 33.35 15.1273 33.8069C14.976 34.2637 14.9256 34.7713 14.9256 35.3297C14.9256 35.8881 14.976 36.3957 15.1273 36.8526C15.2785 37.3094 15.4298 37.6648 15.6819 37.9693C15.934 38.2739 16.2366 38.5277 16.5896 38.68C16.9425 38.8323 17.3459 38.9338 17.7997 38.9338Z" fill="#A57D4E"/>
<path d="M28.2887 30.7612C28.8433 30.7612 29.3476 30.812 29.8014 30.9643C30.2048 31.1166 30.5577 31.2688 30.8603 31.5227C31.1628 31.7765 31.3645 32.081 31.4654 32.4364C31.6166 32.7917 31.6671 33.1978 31.6671 33.6039C31.6671 34.01 31.6166 34.416 31.4654 34.7714C31.3141 35.1267 31.1124 35.4313 30.8099 35.6851C30.5073 35.9389 30.1543 36.1419 29.751 36.2942C29.3476 36.4465 28.8433 36.4973 28.2887 36.4973H26.8264V39.8983H25.6162V30.7612H28.2887ZM28.2887 35.482C28.6416 35.482 28.9442 35.4313 29.1963 35.3298C29.4484 35.2282 29.7005 35.1267 29.8518 34.9237C30.0535 34.7714 30.1543 34.5683 30.2552 34.3145C30.356 34.0607 30.4065 33.8069 30.4065 33.5531C30.4065 32.9947 30.2048 32.5379 29.8518 32.1825C29.4988 31.878 28.9442 31.6749 28.2382 31.6749H26.776V35.4313H28.2887V35.482Z" fill="#B58A56"/>
<path d="M43.4654 35.3297C43.4654 35.9896 43.3645 36.6495 43.1629 37.2079C42.9612 37.7663 42.6586 38.2739 42.2552 38.68C41.8518 39.0861 41.398 39.3906 40.8434 39.6444C40.2887 39.8475 39.6836 39.9998 39.0281 39.9998C38.3726 39.9998 37.7675 39.8983 37.2129 39.6444C36.6582 39.4414 36.2044 39.0861 35.801 38.68C35.3976 38.2739 35.0951 37.7663 34.8934 37.2079C34.6917 36.6495 34.5908 35.9896 34.5908 35.3297C34.5908 34.6698 34.6917 34.0099 34.8934 33.4515C35.0951 32.8932 35.3976 32.3856 35.801 31.9795C36.2044 31.5734 36.6582 31.2688 37.2129 31.015C37.7675 30.7612 38.3726 30.6597 39.0281 30.6597C39.6836 30.6597 40.2887 30.7612 40.8434 31.015C41.398 31.2688 41.8518 31.5734 42.2552 31.9795C42.6586 32.3856 42.9612 32.8932 43.1629 33.4515C43.3645 34.0099 43.4654 34.6191 43.4654 35.3297ZM42.2048 35.3297C42.2048 34.7713 42.104 34.2637 41.9527 33.8069C41.8014 33.35 41.5997 32.9947 41.2972 32.6901C40.9946 32.3856 40.6921 32.1318 40.2887 31.9795C39.8853 31.8272 39.4315 31.7257 38.9777 31.7257C38.4735 31.7257 38.0701 31.8272 37.6667 31.9795C37.2633 32.1318 36.9103 32.3856 36.6582 32.6901C36.3557 32.9947 36.1539 33.35 36.0027 33.8069C35.8514 34.2637 35.7506 34.7713 35.7506 35.3297C35.7506 35.8881 35.8514 36.3957 36.0027 36.8526C36.1539 37.3094 36.3557 37.6648 36.6582 37.9693C36.9607 38.2739 37.2633 38.5277 37.6667 38.68C38.0701 38.8323 38.5239 38.9338 38.9777 38.9338C39.4819 38.9338 39.8853 38.8323 40.2887 38.68C40.6921 38.5277 41.0451 38.2739 41.2972 37.9693C41.5997 37.6648 41.8014 37.3094 41.9527 36.8526C42.1544 36.345 42.2048 35.8881 42.2048 35.3297Z" fill="#B58A56"/>
<path d="M59.5003 39.8475H58.391C58.2901 39.8475 58.1893 39.7967 58.0884 39.746C57.9876 39.6952 57.9371 39.5937 57.8363 39.4414L55.4159 36.0911C55.3151 35.9389 55.1638 35.7866 55.063 35.7358C54.9117 35.685 54.7604 35.6343 54.5588 35.6343H53.4494V39.7967H52.2393V30.6597H53.4494V34.6698H54.4075C54.6092 34.6698 54.7604 34.6191 54.9117 34.5683C55.063 34.5175 55.1638 34.416 55.3151 34.213L57.685 31.015C57.7354 30.9135 57.8363 30.812 57.9371 30.7612C58.038 30.7104 58.1388 30.6597 58.2397 30.6597H59.2482L56.5253 34.416C56.3236 34.7206 56.0715 34.9236 55.7185 35.0252C55.9202 35.0759 56.1219 35.1774 56.2732 35.3297C56.4244 35.482 56.5757 35.6343 56.727 35.8881L59.5003 39.8475Z" fill="#B58A56"/>
<path d="M65.2994 30.7612C65.8541 30.7612 66.3583 30.812 66.8121 30.9643C67.2155 31.1166 67.5685 31.2688 67.871 31.5227C68.1736 31.7765 68.3753 32.081 68.4761 32.4364C68.6274 32.7917 68.6778 33.1978 68.6778 33.6039C68.6778 34.01 68.6274 34.416 68.4761 34.7714C68.3248 35.1267 68.1231 35.4313 67.8206 35.6851C67.518 35.9389 67.1651 36.1419 66.7617 36.2942C66.3583 36.4465 65.8541 36.4973 65.2994 36.4973H63.8371V39.8983H62.627V30.7612H65.2994ZM65.2994 35.482C65.6524 35.482 65.9549 35.4313 66.207 35.3298C66.4592 35.2282 66.7113 35.1267 66.8625 34.9237C67.0642 34.7714 67.1651 34.5683 67.2659 34.3145C67.3668 34.0607 67.4172 33.8069 67.4172 33.5531C67.4172 32.9947 67.2155 32.5379 66.8625 32.1825C66.5096 31.878 65.9549 31.6749 65.249 31.6749H63.8371V35.4313H65.2994V35.482Z" fill="#CA9B60"/>
<path d="M77.7035 38.8831V39.8983H72.1064V30.7612H77.7035V31.7765H73.367V34.8221H76.8967V35.7866H73.367V38.8831H77.7035Z" fill="#CA9B60"/>
<path d="M88.6954 39.8475H87.7374C87.6365 39.8475 87.5357 39.7968 87.4853 39.746C87.4348 39.6952 87.3844 39.6445 87.334 39.5429L86.4768 37.3602H82.3925L81.5353 39.5429C81.4849 39.6445 81.4848 39.6952 81.384 39.746C81.3336 39.7968 81.2327 39.8475 81.1319 39.8475H80.1738L83.8043 30.7104H85.0649L88.6954 39.8475ZM86.1238 36.4972L84.712 32.7917C84.6615 32.6901 84.6111 32.5379 84.5607 32.3856C84.5103 32.2333 84.4598 32.081 84.4094 31.9287C84.3086 32.284 84.2077 32.5379 84.1573 32.7917L82.7454 36.4972H86.1238Z" fill="#CA9B60"/>
<path d="M97.0154 31.7765H94.0908V39.8475H92.8806V31.7765H89.9561V30.7612H97.0658V31.7765H97.0154Z" fill="#CA9B60"/>
<path d="M107.605 30.7612V39.8983H106.395V33.4008C106.395 33.1978 106.395 33.0455 106.395 32.8425C106.395 32.6394 106.445 32.4364 106.445 32.2333C106.395 32.4364 106.294 32.5886 106.193 32.7917C106.092 32.944 106.042 33.0963 105.941 33.2485L101.705 39.5937C101.655 39.6952 101.554 39.7968 101.453 39.8475C101.352 39.949 101.252 39.949 101.151 39.949H100.243V30.812H101.453V37.3094C101.453 37.5125 101.453 37.6648 101.453 37.8678C101.453 38.0709 101.403 38.2739 101.403 38.477C101.453 38.2739 101.554 38.1216 101.655 37.9186C101.756 37.7663 101.806 37.614 101.907 37.4617L106.143 31.1166C106.193 31.015 106.294 30.9135 106.395 30.8628C106.496 30.7612 106.597 30.7612 106.697 30.7612H107.605Z" fill="#CA9B60"/>
<path d="M114.715 30.7612C115.269 30.7612 115.774 30.812 116.177 30.9135C116.58 31.015 116.933 31.1673 117.185 31.3704C117.438 31.5734 117.639 31.8272 117.74 32.1318C117.841 32.4363 117.942 32.7409 117.942 33.147C117.942 33.3501 117.891 33.6039 117.841 33.8069C117.791 34.0099 117.69 34.213 117.538 34.3653C117.387 34.5683 117.236 34.7206 117.034 34.8221C116.833 34.9744 116.58 35.0759 116.278 35.1775C116.933 35.3297 117.438 35.5328 117.791 35.8881C118.144 36.2434 118.295 36.7003 118.295 37.2587C118.295 37.6648 118.244 38.0201 118.093 38.3247C117.942 38.6292 117.74 38.9338 117.488 39.1368C117.236 39.3907 116.883 39.5429 116.48 39.6445C116.076 39.746 115.622 39.8475 115.118 39.8475H111.941V30.7104H114.715V30.7612ZM113.051 31.7257V34.8221H114.664C115.017 34.8221 115.32 34.7714 115.572 34.7206C115.824 34.6191 116.026 34.5176 116.227 34.416C116.379 34.2638 116.53 34.1115 116.58 33.9084C116.681 33.7054 116.681 33.5023 116.681 33.2993C116.681 32.7409 116.53 32.3856 116.177 32.1318C115.874 31.878 115.37 31.7764 114.664 31.7764H113.051V31.7257ZM115.017 38.883C115.37 38.883 115.673 38.8323 115.925 38.7815C116.177 38.68 116.379 38.5785 116.53 38.4262C116.681 38.2739 116.833 38.1216 116.883 37.9186C116.984 37.7155 116.984 37.5125 116.984 37.2587C116.984 36.8018 116.833 36.3957 116.48 36.1419C116.127 35.8881 115.622 35.7358 114.967 35.7358H113V38.9338H115.017V38.883Z" fill="#DEAA6E"/>
<path d="M129.236 30.7612V39.8983H128.026V35.7358H123.135V39.8983H121.925V30.7612H123.135V34.8221H128.026V30.7612H129.236Z" fill="#DEAA6E"/>
<path d="M136.447 34.6698C137.001 34.6698 137.455 34.7206 137.859 34.8729C138.262 34.9744 138.564 35.1775 138.867 35.3805C139.119 35.5836 139.321 35.8374 139.422 36.1419C139.523 36.4465 139.623 36.7511 139.623 37.1064C139.623 37.5125 139.573 37.9186 139.422 38.2231C139.27 38.5785 139.069 38.8323 138.817 39.0861C138.564 39.3399 138.212 39.4922 137.808 39.6445C137.405 39.7967 136.951 39.8475 136.447 39.8475H133.472V30.7104H134.682V34.6191H136.447V34.6698ZM136.447 38.883C136.8 38.883 137.102 38.8323 137.354 38.7815C137.606 38.68 137.808 38.5785 137.959 38.4262C138.111 38.2739 138.212 38.1216 138.312 37.9186C138.363 37.7155 138.413 37.5125 138.413 37.2587C138.413 37.0049 138.363 36.8018 138.312 36.5988C138.262 36.3957 138.111 36.2434 137.959 36.0912C137.808 35.9389 137.606 35.8374 137.354 35.7866C137.102 35.7358 136.8 35.6851 136.447 35.6851H134.682V38.9338H136.447V38.883ZM142.498 39.8475H141.287V30.7104H142.498V39.8475Z" fill="#DEAA6E"/>
<path d="M153.642 39.8475H152.432C152.331 39.8475 152.28 39.8475 152.23 39.7967C152.179 39.746 152.129 39.6952 152.079 39.6445L149.658 35.7866C149.608 35.8881 149.608 35.9896 149.557 36.0404L147.188 39.5937C147.137 39.6445 147.087 39.6952 147.036 39.746C146.986 39.7968 146.935 39.7967 146.835 39.7967H145.675L148.801 35.1267L145.826 30.7104H147.036C147.137 30.7104 147.188 30.7105 147.238 30.7612C147.288 30.812 147.339 30.812 147.339 30.9135L149.709 34.5683C149.759 34.4668 149.759 34.3653 149.86 34.2637L152.079 30.9135C152.129 30.8627 152.129 30.812 152.179 30.7612C152.23 30.7105 152.28 30.7104 152.331 30.7104H153.49L150.465 35.0759L153.642 39.8475Z" fill="#DEAA6E"/>
<path d="M164.634 30.7612C165.189 30.7612 165.693 30.812 166.147 30.9643C166.55 31.1166 166.903 31.2688 167.206 31.5227C167.509 31.7765 167.71 32.081 167.811 32.4364C167.962 32.7917 168.013 33.1978 168.013 33.6039C168.013 34.01 167.962 34.416 167.811 34.7714C167.66 35.1267 167.458 35.4313 167.156 35.6851C166.853 35.9389 166.5 36.1419 166.097 36.2942C165.693 36.4465 165.189 36.4973 164.634 36.4973H163.172V39.8983H161.962V30.7612H164.634ZM164.634 35.482C164.987 35.482 165.29 35.4313 165.542 35.3298C165.794 35.2282 166.046 35.1267 166.198 34.9237C166.399 34.7714 166.5 34.5683 166.601 34.3145C166.702 34.0607 166.752 33.8069 166.752 33.5531C166.752 32.9947 166.55 32.5379 166.198 32.1825C165.845 31.878 165.29 31.6749 164.584 31.6749H163.122V35.4313H164.634V35.482Z" fill="#ECBB86"/>
<path d="M177.088 38.8831V39.8983H171.491V30.7612H177.088V31.7765H172.752V34.8221H176.281V35.7866H172.752V38.8831H177.088Z" fill="#ECBB86"/>
<path d="M191.964 30.7612V39.8983H180.669V30.7612H181.879V38.9338H185.661V30.7612H186.871V38.9338H190.703V30.7612H191.964Z" fill="#ECBB86"/>
<path d="M201.796 38.8831V39.8983H196.199V30.7612H201.796V31.7765H197.46V34.8221H200.989V35.7866H197.46V38.8831H201.796Z" fill="#ECBB86"/>
<path d="M212.738 30.7612V39.8983H211.528V35.7358H206.637V39.8983H205.427V30.7612H206.637V34.8221H211.528V30.7612H212.738Z" fill="#FBCEA0"/>
<path d="M224.286 30.7612V39.8983H223.076V33.4008C223.076 33.1978 223.076 33.0455 223.076 32.8425C223.076 32.6394 223.126 32.4364 223.126 32.2333C223.076 32.4364 222.975 32.5886 222.874 32.7917C222.773 32.944 222.723 33.0963 222.622 33.2485L218.386 39.5937C218.336 39.6952 218.235 39.7968 218.134 39.8475C218.033 39.949 217.932 39.949 217.831 39.949H216.924V30.812H218.134V37.3094C218.134 37.5125 218.134 37.6648 218.134 37.8678C218.134 38.0709 218.084 38.2739 218.084 38.477C218.134 38.2739 218.235 38.1216 218.336 37.9186C218.437 37.7663 218.487 37.614 218.588 37.4617L222.823 31.1166C222.874 31.015 222.975 30.9135 223.076 30.8628C223.176 30.7612 223.277 30.7612 223.378 30.7612H224.286Z" fill="#FBCEA0"/>
<path d="M235.833 30.7613V39.8984H234.622V33.4009C234.622 33.1979 234.622 33.0456 234.622 32.8425C234.622 32.6395 234.673 32.4364 234.673 32.2334C234.622 32.4364 234.522 32.5887 234.421 32.7918C234.32 32.944 234.269 33.0963 234.169 33.2486L229.933 39.5938C229.883 39.6953 229.782 39.7968 229.681 39.8476C229.58 39.9491 229.479 39.9491 229.378 39.9491H228.471V30.8121H229.681V37.3095C229.681 37.5126 229.681 37.6648 229.681 37.8679C229.681 38.0709 229.63 38.274 229.63 38.477C229.681 38.274 229.782 38.1217 229.883 37.9187C229.983 37.7664 230.034 37.6141 230.135 37.4618L234.37 31.1166C234.421 31.0151 234.522 30.9136 234.622 30.8628C234.723 30.7613 234.824 30.7613 234.925 30.7613H235.833ZM232.202 29.543C232.353 29.543 232.505 29.543 232.656 29.4923C232.757 29.4415 232.858 29.3907 232.958 29.2892C233.009 29.1877 233.11 29.0862 233.11 28.9339C233.16 28.7816 233.16 28.6293 233.16 28.4263H233.816C233.916 28.4263 233.967 28.477 234.017 28.5278C234.068 28.5786 234.068 28.6801 234.068 28.7816C234.068 29.1877 233.916 29.543 233.563 29.7461C233.261 29.9999 232.807 30.1014 232.202 30.1014C231.647 30.1014 231.194 29.9999 230.841 29.7461C230.538 29.4923 230.336 29.1877 230.336 28.7816C230.336 28.6801 230.336 28.6293 230.387 28.5278C230.437 28.477 230.488 28.4263 230.589 28.4263H231.244C231.244 28.6293 231.244 28.7816 231.294 28.9339C231.345 29.0862 231.395 29.1877 231.446 29.2892C231.496 29.3907 231.597 29.4415 231.748 29.4923C231.9 29.543 232.051 29.543 232.202 29.543Z" fill="#FBCEA0"/>
</svg>
