<svg width="159" height="26" viewBox="0 0 159 26" fill="none" xmlns="http://www.w3.org/2000/svg">
<g id="logo">
<g id="Group">
<g id="Group_2">
<path id="Vector" d="M0 11.7462V0.0329895H10.7797V11.7462H7.61314V2.77156H3.16653V11.7462H0Z" fill="white"/>
<path id="Vector_2" d="M28.4987 0V2.67259H23.0415V4.45431H27.9934V7.1269H23.0415V9.0406H28.5998V11.7132H19.875V0H28.4987Z" fill="white"/>
<path id="Vector_3" d="M42.0408 0C42.7819 0 43.4556 0.0659918 44.0957 0.197971C44.7357 0.329951 45.2747 0.560916 45.7463 0.85787C46.2179 1.15482 46.5885 1.58375 46.858 2.11167C47.1275 2.63959 47.2622 3.2665 47.2622 4.02538C47.2622 4.78427 47.1275 5.44416 46.858 5.93908C46.5885 6.467 46.2179 6.86295 45.7463 7.1599C45.2747 7.45685 44.7357 7.68782 44.0957 7.8198C43.4556 7.95178 42.7819 8.01777 42.0408 8.01777H40.4575V11.7132H37.291V0H42.0408ZM43.9946 4.02538C43.9946 3.76142 43.9609 3.53046 43.8599 3.36549C43.7588 3.20051 43.6241 3.06853 43.4556 2.96954C43.2872 2.87056 43.0851 2.80457 42.883 2.77157C42.6808 2.73858 42.445 2.70559 42.2092 2.70559H40.4912V5.37818H42.2092C42.445 5.37818 42.6808 5.34518 42.883 5.31218C43.0851 5.27919 43.2872 5.2132 43.4556 5.11421C43.6241 5.01523 43.7588 4.88325 43.8599 4.71828C43.9272 4.52031 43.9946 4.28934 43.9946 4.02538Z" fill="white"/>
<path id="Vector_4" d="M55.583 11.7462V0.0329895H64.2067V2.80456H58.7159V11.7792H55.583V11.7462Z" fill="white"/>
<path id="Vector_5" d="M69.4951 11.7462L74.2112 0.0329895H77.6472L82.3633 11.7462H79.1294L78.4557 9.89847H73.5038L72.8301 11.7462H69.4951ZM74.3797 7.39085H77.4451L76.1987 3.99238C76.1313 3.8604 76.0977 3.69543 76.0303 3.53045C75.9966 3.36548 75.9292 3.13451 75.8619 2.80456C75.7945 3.10151 75.7608 3.36548 75.6934 3.53045C75.6597 3.69543 75.5924 3.8604 75.525 3.99238L74.3797 7.39085Z" fill="white"/>
<path id="Vector_6" d="M103.586 0V11.7132H100.419V5.47716L97.8592 9.33757H96.0402L93.48 5.47716V11.7132H90.3135V0H93.3116L96.9497 5.51015L100.588 0H103.586Z" fill="white"/>
<path id="Vector_7" d="M121.339 0V2.67259H115.881V4.45431H120.8V7.1269H115.848V9.0406H121.406V11.7132H112.715V0H121.339Z" fill="white"/>
<path id="Vector_8" d="M140.876 0V11.7132H137.71V7.22588H133.263V11.7132H130.097V0H133.263V4.48731H137.71V0H140.876Z" fill="white"/>
<path id="Vector_9" d="M159 0V2.77157H155.631V11.7462H152.465V2.77157H149.062V0H159Z" fill="white"/>
</g>
<g id="Group_3">
<path id="Vector_10" d="M2.49239 22.5355C2.86294 22.5355 3.16612 22.5685 3.43561 22.6675C3.7051 22.7335 3.90722 22.8655 4.10934 22.9975C4.27777 23.1294 4.41251 23.2944 4.47988 23.4924C4.54726 23.6904 4.61463 23.8883 4.61463 24.1193C4.61463 24.3833 4.58094 24.6472 4.47988 24.8452C4.37882 25.0761 4.24408 25.2411 4.07565 25.4061C3.90722 25.5711 3.67141 25.6701 3.40192 25.769C3.13243 25.868 2.82925 25.901 2.49239 25.901H0.504883V19.9619H4.41251V20.5888H1.31336V22.5025H2.49239V22.5355ZM2.49239 25.2741C2.72819 25.2741 2.93031 25.2411 3.09874 25.2081C3.26718 25.1421 3.40192 25.0761 3.50298 24.9772C3.60404 24.8782 3.67141 24.7792 3.73878 24.6472C3.77247 24.5152 3.80615 24.3832 3.80615 24.2183C3.80615 24.0533 3.77247 23.9213 3.73878 23.7893C3.7051 23.6574 3.60404 23.5584 3.50298 23.4594C3.40192 23.3604 3.26718 23.2944 3.09874 23.2614C2.93031 23.2284 2.72819 23.1954 2.49239 23.1954H1.31336V25.3071H2.49239V25.2741Z" fill="#A57D4E"/>
<path id="Vector_11" d="M9.12908 22.6345C9.16277 22.2386 9.26383 21.8756 9.39858 21.5457C9.53332 21.2157 9.73544 20.9188 9.97124 20.6878C10.207 20.4568 10.4765 20.2589 10.8134 20.1269C11.1503 19.9949 11.4871 19.9289 11.8914 19.9289C12.2956 19.9289 12.6998 19.9949 13.0367 20.1599C13.3736 20.3249 13.6768 20.5228 13.9126 20.7868C14.1484 21.0508 14.3505 21.3807 14.4852 21.7436C14.62 22.1066 14.6873 22.5355 14.6873 22.9645C14.6873 23.3934 14.62 23.8223 14.4852 24.1853C14.3505 24.5482 14.182 24.8782 13.9126 25.1421C13.6768 25.4061 13.3736 25.6041 13.0367 25.769C12.6998 25.901 12.3293 26 11.8914 26C11.4871 26 11.1503 25.934 10.8134 25.802C10.4765 25.67 10.207 25.4721 9.97124 25.2411C9.73544 25.0101 9.53332 24.7132 9.39858 24.3832C9.26383 24.0533 9.16277 23.6903 9.12908 23.2944H7.81531V25.934H7.00684V19.9949H7.81531V22.6345H9.12908ZM11.8914 25.3071C12.1945 25.3071 12.464 25.2411 12.6998 25.1421C12.9357 25.0431 13.1378 24.8782 13.3062 24.6802C13.4746 24.4822 13.6094 24.2183 13.6768 23.9543C13.7778 23.6574 13.8115 23.3274 13.8115 22.9645C13.8115 22.6015 13.7778 22.2716 13.6768 21.9746C13.5757 21.6777 13.4409 21.4467 13.3062 21.2157C13.1378 21.0178 12.9357 20.8528 12.6998 20.7538C12.464 20.6548 12.1945 20.5888 11.8914 20.5888C11.5882 20.5888 11.3187 20.6548 11.0829 20.7538C10.8471 20.8528 10.645 21.0178 10.4765 21.2157C10.3081 21.4137 10.1734 21.6777 10.106 21.9746C10.0049 22.2716 9.97124 22.6015 9.97124 22.9645C9.97124 23.3274 10.0049 23.6574 10.106 23.9543C10.207 24.2513 10.3081 24.4822 10.4765 24.6802C10.645 24.8782 10.8471 25.0431 11.0829 25.1421C11.3187 25.2411 11.5882 25.3071 11.8914 25.3071Z" fill="#A57D4E"/>
<path id="Vector_12" d="M18.8977 19.9949C19.2682 19.9949 19.6051 20.0279 19.9083 20.1269C20.1778 20.2259 20.4136 20.3249 20.6157 20.4898C20.8178 20.6548 20.9526 20.8528 21.0199 21.0837C21.121 21.3147 21.1547 21.5787 21.1547 21.8426C21.1547 22.1066 21.121 22.3706 21.0199 22.6015C20.9189 22.8325 20.7841 23.0305 20.582 23.1954C20.3799 23.3604 20.1441 23.4924 19.8746 23.5914C19.6051 23.6903 19.2682 23.7233 18.8977 23.7233H17.9208V25.934H17.1123V19.9949H18.8977ZM18.8977 23.0634C19.1335 23.0634 19.3356 23.0305 19.504 22.9645C19.6725 22.8985 19.8409 22.8325 19.942 22.7005C20.0767 22.6015 20.1441 22.4695 20.2115 22.3046C20.2788 22.1396 20.3125 21.9746 20.3125 21.8096C20.3125 21.4467 20.1778 21.1497 19.942 20.9188C19.7062 20.7208 19.3356 20.5888 18.864 20.5888H17.8871V23.0305H18.8977V23.0634Z" fill="#B58A56"/>
<path id="Vector_13" d="M29.0372 22.9645C29.0372 23.3934 28.9698 23.8223 28.8351 24.1853C28.7003 24.5482 28.4982 24.8782 28.2287 25.1421C27.9592 25.4061 27.6561 25.6041 27.2855 25.769C26.915 25.901 26.5107 26 26.0728 26C25.6349 26 25.2306 25.934 24.8601 25.769C24.4895 25.637 24.1864 25.4061 23.9169 25.1421C23.6474 24.8782 23.4453 24.5482 23.3105 24.1853C23.1758 23.8223 23.1084 23.3934 23.1084 22.9645C23.1084 22.5355 23.1758 22.1066 23.3105 21.7436C23.4453 21.3807 23.6474 21.0508 23.9169 20.7868C24.1864 20.5228 24.4895 20.3249 24.8601 20.1599C25.2306 19.9949 25.6349 19.9289 26.0728 19.9289C26.5107 19.9289 26.915 19.9949 27.2855 20.1599C27.6561 20.3249 27.9592 20.5228 28.2287 20.7868C28.4982 21.0508 28.7003 21.3807 28.8351 21.7436C28.9698 22.1066 29.0372 22.5025 29.0372 22.9645ZM28.1951 22.9645C28.1951 22.6015 28.1277 22.2716 28.0266 21.9746C27.9256 21.6777 27.7908 21.4467 27.5887 21.2487C27.3866 21.0508 27.1845 20.8858 26.915 20.7868C26.6455 20.6878 26.3423 20.6218 26.0391 20.6218C25.7023 20.6218 25.4328 20.6878 25.1633 20.7868C24.8938 20.8858 24.658 21.0508 24.4895 21.2487C24.2874 21.4467 24.1527 21.6777 24.0516 21.9746C23.9506 22.2716 23.8832 22.6015 23.8832 22.9645C23.8832 23.3274 23.9506 23.6574 24.0516 23.9543C24.1527 24.2513 24.2874 24.4822 24.4895 24.6802C24.6917 24.8782 24.8938 25.0431 25.1633 25.1421C25.4328 25.2411 25.7359 25.3071 26.0391 25.3071C26.376 25.3071 26.6455 25.2411 26.915 25.1421C27.1845 25.0431 27.4203 24.8782 27.5887 24.6802C27.7908 24.4822 27.9256 24.2513 28.0266 23.9543C28.1614 23.6244 28.1951 23.3274 28.1951 22.9645Z" fill="#B58A56"/>
<path id="Vector_14" d="M39.7493 25.901H39.0082C38.9408 25.901 38.8734 25.868 38.8061 25.835C38.7387 25.802 38.705 25.736 38.6376 25.6371L37.0207 23.4594C36.9533 23.3604 36.8523 23.2614 36.7849 23.2284C36.6838 23.1954 36.5828 23.1624 36.448 23.1624H35.7069V25.868H34.8984V19.9289H35.7069V22.5355H36.347C36.4817 22.5355 36.5828 22.5025 36.6838 22.4695C36.7849 22.4365 36.8523 22.3705 36.9533 22.2386L38.5366 20.1599C38.5703 20.0939 38.6376 20.0279 38.705 19.9949C38.7724 19.9619 38.8397 19.9289 38.9071 19.9289H39.5809L37.7618 22.3706C37.627 22.5685 37.4586 22.7005 37.2228 22.7665C37.3575 22.7995 37.4923 22.8655 37.5934 22.9645C37.6944 23.0634 37.7955 23.1624 37.8965 23.3274L39.7493 25.901Z" fill="#B58A56"/>
<path id="Vector_15" d="M43.6233 19.9949C43.9938 19.9949 44.3307 20.0279 44.6339 20.1269C44.9034 20.2259 45.1392 20.3249 45.3413 20.4898C45.5434 20.6548 45.6781 20.8528 45.7455 21.0837C45.8466 21.3147 45.8803 21.5787 45.8803 21.8426C45.8803 22.1066 45.8466 22.3706 45.7455 22.6015C45.6445 22.8325 45.5097 23.0305 45.3076 23.1954C45.1055 23.3604 44.8697 23.4924 44.6002 23.5914C44.3307 23.6903 43.9938 23.7233 43.6233 23.7233H42.6464V25.934H41.8379V19.9949H43.6233ZM43.6233 23.0634C43.8591 23.0634 44.0612 23.0305 44.2296 22.9645C44.3981 22.8985 44.5665 22.8325 44.6675 22.7005C44.8023 22.6015 44.8697 22.4695 44.937 22.3046C45.0044 22.1396 45.0381 21.9746 45.0381 21.8096C45.0381 21.4467 44.9034 21.1497 44.6675 20.9188C44.4317 20.7208 44.0612 20.5888 43.5896 20.5888H42.6464V23.0305H43.6233V23.0634Z" fill="#CA9B60"/>
<path id="Vector_16" d="M51.9101 25.2741V25.934H48.1709V19.9949H51.9101V20.6548H49.0131V22.6345H51.3711V23.2614H49.0131V25.2741H51.9101Z" fill="#CA9B60"/>
<path id="Vector_17" d="M59.2536 25.901H58.6135C58.5461 25.901 58.4788 25.868 58.4451 25.835C58.4114 25.802 58.3777 25.769 58.344 25.703L57.7714 24.2843H55.0427L54.4701 25.703C54.4364 25.769 54.4364 25.802 54.369 25.835C54.3353 25.868 54.268 25.901 54.2006 25.901H53.5605L55.986 19.9619H56.8281L59.2536 25.901ZM57.5356 23.7233L56.5923 21.3147C56.5586 21.2487 56.525 21.1498 56.4913 21.0508C56.4576 20.9518 56.4239 20.8528 56.3902 20.7538C56.3228 20.9848 56.2555 21.1497 56.2218 21.3147L55.2786 23.7233H57.5356Z" fill="#CA9B60"/>
<path id="Vector_18" d="M64.8118 20.6548H62.858V25.901H62.0495V20.6548H60.0957V19.9949H64.8455V20.6548H64.8118Z" fill="#CA9B60"/>
<path id="Vector_19" d="M71.886 19.9949V25.934H71.0775V21.7107C71.0775 21.5787 71.0775 21.4797 71.0775 21.3477C71.0775 21.2157 71.1112 21.0837 71.1112 20.9518C71.0775 21.0837 71.0101 21.1827 70.9428 21.3147C70.8754 21.4137 70.8417 21.5127 70.7743 21.6117L67.9447 25.736C67.911 25.802 67.8436 25.868 67.7762 25.901C67.7089 25.967 67.6415 25.967 67.5741 25.967H66.9678V20.0279H67.7762V24.2513C67.7762 24.3832 67.7762 24.4822 67.7762 24.6142C67.7762 24.7462 67.7426 24.8782 67.7426 25.0101C67.7762 24.8782 67.8436 24.7792 67.911 24.6472C67.9784 24.5482 68.012 24.4492 68.0794 24.3503L70.9091 20.2259C70.9428 20.1599 71.0101 20.0939 71.0775 20.0609C71.1449 19.9949 71.2123 19.9949 71.2796 19.9949H71.886Z" fill="#CA9B60"/>
<path id="Vector_20" d="M76.636 19.9949C77.0065 19.9949 77.3434 20.0279 77.6129 20.0939C77.8824 20.1599 78.1182 20.2589 78.2866 20.3909C78.455 20.5228 78.5898 20.6878 78.6571 20.8858C78.7245 21.0838 78.7919 21.2817 78.7919 21.5457C78.7919 21.6777 78.7582 21.8426 78.7245 21.9746C78.6908 22.1066 78.6235 22.2386 78.5224 22.3376C78.4213 22.4695 78.3203 22.5685 78.1855 22.6345C78.0508 22.7335 77.8824 22.7995 77.6802 22.8655C78.1182 22.9645 78.455 23.0965 78.6908 23.3274C78.9266 23.5584 79.0277 23.8553 79.0277 24.2183C79.0277 24.4822 78.994 24.7132 78.893 24.9112C78.7919 25.1091 78.6571 25.3071 78.4887 25.4391C78.3203 25.6041 78.0845 25.703 77.815 25.769C77.5455 25.835 77.2423 25.901 76.9055 25.901H74.7832V19.9619H76.636V19.9949ZM75.5243 20.6218V22.6345H76.6023C76.8381 22.6345 77.0402 22.6015 77.2086 22.5685C77.3771 22.5025 77.5118 22.4366 77.6466 22.3706C77.7476 22.2716 77.8487 22.1726 77.8824 22.0406C77.9497 21.9086 77.9497 21.7767 77.9497 21.6447C77.9497 21.2817 77.8487 21.0508 77.6129 20.8858C77.4107 20.7208 77.0739 20.6548 76.6023 20.6548H75.5243V20.6218ZM76.8381 25.2741C77.0739 25.2741 77.276 25.2411 77.4444 25.2081C77.6129 25.1421 77.7476 25.0761 77.8487 24.9772C77.9497 24.8782 78.0508 24.7792 78.0845 24.6472C78.1519 24.5152 78.1518 24.3832 78.1518 24.2183C78.1518 23.9213 78.0508 23.6574 77.815 23.4924C77.5792 23.3274 77.2423 23.2284 76.8044 23.2284H75.4906V25.3071H76.8381V25.2741Z" fill="#DEAA6E"/>
<path id="Vector_21" d="M86.3377 19.9949V25.934H85.5292V23.2284H82.2616V25.934H81.4531V19.9949H82.2616V22.6345H85.5292V19.9949H86.3377Z" fill="#DEAA6E"/>
<path id="Vector_22" d="M91.1555 22.5355C91.526 22.5355 91.8292 22.5685 92.0987 22.6675C92.3682 22.7335 92.5703 22.8655 92.7724 22.9975C92.9408 23.1294 93.0756 23.2944 93.143 23.4924C93.2103 23.6904 93.2777 23.8883 93.2777 24.1193C93.2777 24.3833 93.244 24.6472 93.143 24.8452C93.0419 25.0761 92.9072 25.2411 92.7387 25.4061C92.5703 25.5711 92.3345 25.6701 92.065 25.769C91.7955 25.868 91.4923 25.901 91.1555 25.901H89.168V19.9619H89.9764V22.5025H91.1555V22.5355ZM91.1555 25.2741C91.3913 25.2741 91.5934 25.2411 91.7618 25.2081C91.9303 25.1421 92.065 25.0761 92.1661 24.9772C92.2671 24.8782 92.3345 24.7792 92.4019 24.6472C92.4356 24.5152 92.4692 24.3832 92.4692 24.2183C92.4692 24.0533 92.4356 23.9213 92.4019 23.7893C92.3682 23.6574 92.2671 23.5584 92.1661 23.4594C92.065 23.3604 91.9303 23.2944 91.7618 23.2614C91.5934 23.2284 91.3913 23.1954 91.1555 23.1954H89.9764V25.3071H91.1555V25.2741ZM95.1978 25.901H94.3894V19.9619H95.1978V25.901Z" fill="#DEAA6E"/>
<path id="Vector_23" d="M102.642 25.901H101.833C101.766 25.901 101.732 25.901 101.699 25.868C101.665 25.835 101.631 25.802 101.598 25.769L99.9806 23.2614C99.9469 23.3274 99.9469 23.3934 99.9132 23.4264L98.3299 25.736C98.2962 25.769 98.2626 25.802 98.2289 25.835C98.1952 25.868 98.1615 25.868 98.0941 25.868H97.3193L99.4079 22.8325L97.4204 19.9619H98.2289C98.2962 19.9619 98.3299 19.9619 98.3636 19.9949C98.3973 20.0279 98.431 20.0279 98.431 20.0939L100.014 22.4695C100.048 22.4036 100.048 22.3376 100.115 22.2716L101.598 20.0939C101.631 20.0609 101.631 20.0279 101.665 19.9949C101.699 19.9619 101.732 19.9619 101.766 19.9619H102.541L100.52 22.7995L102.642 25.901Z" fill="#DEAA6E"/>
<path id="Vector_24" d="M109.986 19.9949C110.356 19.9949 110.693 20.0279 110.996 20.1269C111.266 20.2259 111.501 20.3249 111.704 20.4898C111.906 20.6548 112.04 20.8528 112.108 21.0837C112.209 21.3147 112.243 21.5787 112.243 21.8426C112.243 22.1066 112.209 22.3706 112.108 22.6015C112.007 22.8325 111.872 23.0305 111.67 23.1954C111.468 23.3604 111.232 23.4924 110.962 23.5914C110.693 23.6903 110.356 23.7233 109.986 23.7233H109.009V25.934H108.2V19.9949H109.986ZM109.986 23.0634C110.221 23.0634 110.424 23.0305 110.592 22.9645C110.76 22.8985 110.929 22.8325 111.03 22.7005C111.165 22.6015 111.232 22.4695 111.299 22.3046C111.367 22.1396 111.4 21.9746 111.4 21.8096C111.4 21.4467 111.266 21.1497 111.03 20.9188C110.794 20.7208 110.424 20.5888 109.952 20.5888H108.975V23.0305H109.986V23.0634Z" fill="#ECBB86"/>
<path id="Vector_25" d="M118.307 25.2741V25.934H114.567V19.9949H118.307V20.6548H115.41V22.6345H117.768V23.2614H115.41V25.2741H118.307Z" fill="#ECBB86"/>
<path id="Vector_26" d="M128.244 19.9949V25.934H120.698V19.9949H121.507V25.3071H124.033V19.9949H124.842V25.3071H127.402V19.9949H128.244Z" fill="#ECBB86"/>
<path id="Vector_27" d="M134.812 25.2741V25.934H131.073V19.9949H134.812V20.6548H131.915V22.6345H134.273V23.2614H131.915V25.2741H134.812Z" fill="#ECBB86"/>
<path id="Vector_28" d="M142.123 19.9949V25.934H141.314V23.2284H138.047V25.934H137.238V19.9949H138.047V22.6345H141.314V19.9949H142.123Z" fill="#FBCEA0"/>
<path id="Vector_29" d="M149.837 19.9949V25.934H149.029V21.7107C149.029 21.5787 149.029 21.4797 149.029 21.3477C149.029 21.2157 149.062 21.0837 149.062 20.9518C149.029 21.0837 148.961 21.1827 148.894 21.3147C148.827 21.4137 148.793 21.5127 148.726 21.6117L145.896 25.736C145.862 25.802 145.795 25.868 145.727 25.901C145.66 25.967 145.593 25.967 145.525 25.967H144.919V20.0279H145.727V24.2513C145.727 24.3832 145.727 24.4822 145.727 24.6142C145.727 24.7462 145.694 24.8782 145.694 25.0101C145.727 24.8782 145.795 24.7792 145.862 24.6472C145.93 24.5482 145.963 24.4492 146.031 24.3503L148.86 20.2259C148.894 20.1599 148.961 20.0939 149.029 20.0609C149.096 19.9949 149.163 19.9949 149.231 19.9949H149.837Z" fill="#FBCEA0"/>
<path id="Vector_30" d="M157.551 19.9949V25.934H156.743V21.7107C156.743 21.5787 156.743 21.4797 156.743 21.3477C156.743 21.2157 156.776 21.0838 156.776 20.9518C156.743 21.0838 156.675 21.1827 156.608 21.3147C156.54 21.4137 156.507 21.5127 156.439 21.6117L153.61 25.736C153.576 25.802 153.509 25.868 153.441 25.901C153.374 25.967 153.307 25.967 153.239 25.967H152.633V20.0279H153.441V24.2513C153.441 24.3832 153.441 24.4822 153.441 24.6142C153.441 24.7462 153.408 24.8782 153.408 25.0102C153.441 24.8782 153.509 24.7792 153.576 24.6472C153.643 24.5482 153.677 24.4492 153.744 24.3503L156.574 20.2259C156.608 20.1599 156.675 20.0939 156.743 20.0609C156.81 19.9949 156.877 19.9949 156.945 19.9949H157.551ZM155.126 19.203C155.227 19.203 155.328 19.203 155.429 19.1701C155.496 19.1371 155.564 19.1041 155.631 19.0381C155.665 18.9721 155.732 18.9061 155.732 18.8071C155.766 18.7081 155.766 18.6091 155.766 18.4772H156.204C156.271 18.4772 156.305 18.5102 156.338 18.5432C156.372 18.5761 156.372 18.6421 156.372 18.7081C156.372 18.9721 156.271 19.203 156.035 19.335C155.833 19.5 155.53 19.566 155.126 19.566C154.755 19.566 154.452 19.5 154.216 19.335C154.014 19.1701 153.879 18.9721 153.879 18.7081C153.879 18.6421 153.879 18.6091 153.913 18.5432C153.947 18.5102 153.98 18.4772 154.048 18.4772H154.486C154.486 18.6091 154.486 18.7081 154.519 18.8071C154.553 18.9061 154.587 18.9721 154.62 19.0381C154.654 19.1041 154.721 19.1371 154.822 19.1701C154.923 19.203 155.025 19.203 155.126 19.203Z" fill="#FBCEA0"/>
</g>
</g>
</g>
</svg>
