<svg width="21" height="21" viewBox="0 0 21 21" fill="none" xmlns="http://www.w3.org/2000/svg">
<path d="M10.488 10.7984C8.0161 10.7984 5.9616 8.74562 5.9616 6.31662C5.9616 3.80362 8.0161 1.75 10.4888 1.75C13.0456 1.75 15.0152 3.80275 15.0152 6.31662C15.0108 7.50929 14.533 8.65142 13.6869 9.49197C12.8408 10.3325 11.6955 10.8027 10.5028 10.7992L10.488 10.7984ZM10.488 4.38987C9.44147 4.38987 8.64522 5.26925 8.64522 6.3175C8.64522 7.364 9.44147 8.16025 10.4888 8.16025C11.5782 8.16025 12.3325 7.364 12.3325 6.3175C12.3333 5.26837 11.5782 4.38987 10.488 4.38987ZM12.2905 14.5276L14.8481 16.9995C15.3512 17.5429 15.3512 18.3391 14.8481 18.8422C14.3038 19.3856 13.4647 19.3856 13.0456 18.8422L10.4888 16.3284L8.0161 18.8422C7.76497 19.0934 7.42897 19.2185 7.05097 19.2185C6.75784 19.2185 6.42272 19.0925 6.12872 18.8422C5.6256 18.3391 5.6256 17.5429 6.12872 16.9986L8.72747 14.5267C7.78897 14.2488 6.88869 13.8553 6.04734 13.3551C5.41822 13.02 5.2931 12.1826 5.62822 11.5535C6.04735 10.9253 6.80159 10.7581 7.47272 11.1772C8.38149 11.7318 9.42553 12.0252 10.4902 12.0252C11.5548 12.0252 12.5988 11.7318 13.5076 11.1772C14.1787 10.7581 14.9741 10.9253 15.3512 11.5535C15.7292 12.1826 15.5603 13.0191 14.9732 13.3551C14.1778 13.8582 13.2556 14.2354 12.2913 14.5285L12.2905 14.5276Z" fill="#B0B0B0"/>
</svg>
