<svg width="615" height="116" viewBox="0 0 615 116" fill="none" xmlns="http://www.w3.org/2000/svg">
<path d="M0 90.496V0H73.984V90.496H57.984V14.464H16V90.496H0Z" fill="white"/>
<path d="M115.498 91.392C108.501 91.392 102.527 89.9413 97.578 87.04C92.714 84.1387 89.002 80.128 86.442 75.008C83.9673 69.8027 82.73 63.7867 82.73 56.96C82.73 50.1333 84.01 44.1173 86.57 38.912C89.2153 33.6213 92.97 29.4827 97.834 26.496C102.783 23.5093 108.714 22.016 115.626 22.016C120.575 22.016 124.97 22.912 128.81 24.704C132.65 26.4107 135.893 28.8427 138.538 32C141.183 35.072 143.146 38.656 144.426 42.752C145.706 46.7627 146.303 51.072 146.218 55.68C146.218 56.704 146.175 57.728 146.09 58.752C146.005 59.6907 145.877 60.7147 145.706 61.824H98.346C98.602 64.8107 99.37 67.5413 100.65 70.016C102.015 72.4907 103.893 74.4533 106.282 75.904C108.757 77.3547 111.829 78.08 115.498 78.08C117.631 78.08 119.679 77.824 121.642 77.312C123.605 76.7147 125.311 75.8613 126.762 74.752C128.298 73.6427 129.322 72.2347 129.834 70.528H145.45C144.341 75.392 142.293 79.36 139.306 82.432C136.319 85.504 132.735 87.7653 128.554 89.216C124.458 90.6667 120.106 91.392 115.498 91.392ZM98.602 50.176H131.114C131.114 47.36 130.474 44.8 129.194 42.496C127.914 40.192 126.079 38.4 123.69 37.12C121.386 35.7547 118.57 35.072 115.242 35.072C111.658 35.072 108.671 35.7973 106.282 37.248C103.893 38.6987 102.058 40.576 100.778 42.88C99.498 45.184 98.7727 47.616 98.602 50.176Z" fill="white"/>
<path d="M152.39 115.328V23.04H166.982L167.75 32.256C170.395 28.672 173.638 26.0693 177.478 24.448C181.318 22.8267 185.371 22.016 189.638 22.016C196.123 22.016 201.542 23.552 205.894 26.624C210.246 29.696 213.489 33.8773 215.622 39.168C217.755 44.3733 218.822 50.2613 218.822 56.832C218.822 63.4027 217.713 69.2907 215.494 74.496C213.361 79.7013 210.033 83.84 205.51 86.912C201.073 89.8987 195.355 91.392 188.358 91.392C185.115 91.392 182.214 91.0507 179.654 90.368C177.094 89.6 174.833 88.6187 172.87 87.424C170.993 86.144 169.371 84.7787 168.006 83.328V115.328H152.39ZM186.182 77.312C190.534 77.312 193.947 76.3733 196.422 74.496C198.897 72.5333 200.689 70.016 201.798 66.944C202.907 63.7867 203.462 60.4587 203.462 56.96C203.462 53.2907 202.865 49.8773 201.67 46.72C200.561 43.5627 198.726 41.0027 196.166 39.04C193.606 37.0773 190.193 36.096 185.926 36.096C182.001 36.096 178.673 37.0773 175.942 39.04C173.297 40.9173 171.291 43.4347 169.926 46.592C168.561 49.7493 167.878 53.1627 167.878 56.832C167.878 60.5867 168.518 64.0427 169.798 67.2C171.078 70.272 173.083 72.7467 175.814 74.624C178.545 76.416 182.001 77.312 186.182 77.312Z" fill="white"/>
<path d="M224.49 90.496V23.04H272.362V36.864H240.106V90.496H224.49Z" fill="white"/>
<path d="M294.832 91.392C291.845 91.392 288.944 90.9653 286.128 90.112C283.397 89.2587 280.923 88.0213 278.704 86.4C276.485 84.6933 274.736 82.6027 273.456 80.128C272.176 77.568 271.536 74.5813 271.536 71.168C271.536 66.816 272.389 63.2747 274.096 60.544C275.803 57.728 278.107 55.5947 281.008 54.144C283.995 52.6933 287.365 51.712 291.12 51.2C294.875 50.6027 298.8 50.304 302.896 50.304H316.08C316.08 47.3173 315.611 44.7573 314.672 42.624C313.733 40.4053 312.24 38.656 310.192 37.376C308.229 36.096 305.669 35.456 302.512 35.456C300.464 35.456 298.544 35.712 296.752 36.224C295.045 36.6507 293.552 37.376 292.272 38.4C291.077 39.3387 290.224 40.576 289.712 42.112H273.712C274.309 38.6133 275.504 35.6267 277.296 33.152C279.173 30.592 281.435 28.5013 284.08 26.88C286.811 25.2587 289.797 24.064 293.04 23.296C296.283 22.4427 299.568 22.016 302.896 22.016C309.467 22.016 314.8 23.296 318.896 25.856C323.077 28.416 326.149 32.0853 328.112 36.864C330.075 41.6427 331.056 47.4027 331.056 54.144V90.496H317.232L316.848 82.304C314.971 84.6933 312.795 86.5707 310.32 87.936C307.931 89.216 305.413 90.112 302.768 90.624C300.123 91.136 297.477 91.392 294.832 91.392ZM298.416 78.72C301.915 78.72 304.987 78.08 307.632 76.8C310.277 75.52 312.368 73.728 313.904 71.424C315.44 69.12 316.208 66.432 316.208 63.36V61.312H304.048C301.829 61.312 299.696 61.3973 297.648 61.568C295.6 61.6533 293.765 61.9947 292.144 62.592C290.608 63.104 289.371 63.9147 288.432 65.024C287.493 66.1333 287.024 67.712 287.024 69.76C287.024 71.7227 287.536 73.3867 288.56 74.752C289.584 76.032 290.949 77.0133 292.656 77.696C294.448 78.3787 296.368 78.72 298.416 78.72Z" fill="white"/>
<path d="M339.565 90.496V23.04H358.637L378.349 53.76L397.677 23.04H416.493V90.496H400.877V42.88L380.397 75.648H375.789L355.053 42.752V90.496H339.565Z" fill="white"/>
<path d="M455.373 91.392C448.376 91.392 442.402 89.9413 437.453 87.04C432.589 84.1387 428.877 80.128 426.317 75.008C423.842 69.8027 422.605 63.7867 422.605 56.96C422.605 50.1333 423.885 44.1173 426.445 38.912C429.09 33.6213 432.845 29.4827 437.709 26.496C442.658 23.5093 448.589 22.016 455.501 22.016C460.45 22.016 464.845 22.912 468.685 24.704C472.525 26.4107 475.768 28.8427 478.413 32C481.058 35.072 483.021 38.656 484.301 42.752C485.581 46.7627 486.178 51.072 486.093 55.68C486.093 56.704 486.05 57.728 485.965 58.752C485.88 59.6907 485.752 60.7147 485.581 61.824H438.221C438.477 64.8107 439.245 67.5413 440.525 70.016C441.89 72.4907 443.768 74.4533 446.157 75.904C448.632 77.3547 451.704 78.08 455.373 78.08C457.506 78.08 459.554 77.824 461.517 77.312C463.48 76.7147 465.186 75.8613 466.637 74.752C468.173 73.6427 469.197 72.2347 469.709 70.528H485.325C484.216 75.392 482.168 79.36 479.181 82.432C476.194 85.504 472.61 87.7653 468.429 89.216C464.333 90.6667 459.981 91.392 455.373 91.392ZM438.477 50.176H470.989C470.989 47.36 470.349 44.8 469.069 42.496C467.789 40.192 465.954 38.4 463.565 37.12C461.261 35.7547 458.445 35.072 455.117 35.072C451.533 35.072 448.546 35.7973 446.157 37.248C443.768 38.6987 441.933 40.576 440.653 42.88C439.373 45.184 438.648 47.616 438.477 50.176Z" fill="white"/>
<path d="M492.265 90.496V23.04H507.881V50.176H536.041V23.04H551.657V90.496H536.041V64.128H507.881V90.496H492.265Z" fill="white"/>
<path d="M576.237 90.496V36.864H553.965V23.04H614.253V36.864H591.853V90.496H576.237Z" fill="white"/>
</svg>
