<svg width="17" height="10" viewBox="0 0 17 10" fill="none" xmlns="http://www.w3.org/2000/svg">
<path d="M16.9098 8.75948C16.8893 8.71512 16.8701 8.67832 16.8522 8.64884C16.5573 8.11763 15.9937 7.4656 15.1617 6.69258L15.1441 6.67488L15.1353 6.6662L15.1264 6.6573H15.1175C14.7399 6.29734 14.5007 6.05531 14.4006 5.9314C14.2174 5.69535 14.1763 5.45642 14.2765 5.21433C14.3472 5.03142 14.613 4.64514 15.0731 4.05496C15.3151 3.74219 15.5068 3.49151 15.6484 3.30265C16.6693 1.9454 17.1119 1.0781 16.9761 0.700407L16.9234 0.612146C16.8879 0.559009 16.7965 0.510398 16.6491 0.466066C16.5014 0.421827 16.3127 0.414511 16.0825 0.443993L13.5334 0.461602C13.4921 0.446969 13.4331 0.448333 13.3563 0.466066C13.2796 0.483799 13.2412 0.492697 13.2412 0.492697L13.1968 0.514863L13.1616 0.541493C13.1321 0.559102 13.0997 0.590073 13.0642 0.634343C13.029 0.678458 12.9995 0.73023 12.9759 0.789226C12.6984 1.50322 12.3829 2.16706 12.0287 2.78071C11.8104 3.14662 11.6099 3.46373 11.4267 3.73224C11.2439 4.00065 11.0904 4.19841 10.9666 4.32517C10.8426 4.45206 10.7307 4.55372 10.6302 4.63051C10.5298 4.70733 10.4532 4.73979 10.4002 4.72791C10.347 4.71604 10.297 4.70426 10.2496 4.69248C10.167 4.63934 10.1006 4.56708 10.0505 4.47562C10.0002 4.38417 9.96639 4.26906 9.94869 4.13039C9.93108 3.99163 9.92066 3.87227 9.91768 3.77192C9.91492 3.67169 9.9162 3.52992 9.92218 3.34701C9.92832 3.16401 9.93108 3.04019 9.93108 2.97527C9.93108 2.75101 9.93545 2.50761 9.94422 2.24503C9.95315 1.98245 9.96037 1.77439 9.96642 1.62112C9.97243 1.4677 9.97522 1.30537 9.97522 1.13424C9.97522 0.963114 9.96481 0.828908 9.94422 0.731501C9.92388 0.634218 9.89267 0.539788 9.85153 0.44824C9.81014 0.356785 9.74956 0.28604 9.67007 0.235817C9.59043 0.185657 9.49141 0.145851 9.37357 0.116275C9.0608 0.0454986 8.66252 0.0072117 8.17856 0.0012594C7.08107 -0.0105212 6.37588 0.0603483 6.06313 0.213775C5.93922 0.278599 5.82709 0.367171 5.72683 0.47921C5.62059 0.609076 5.60577 0.679946 5.68247 0.691603C6.03657 0.744646 6.28724 0.871536 6.43478 1.07215L6.48795 1.17845C6.5293 1.25515 6.5706 1.39094 6.61192 1.58563C6.65319 1.78032 6.67982 1.99568 6.69154 2.23161C6.72099 2.66243 6.72099 3.03123 6.69154 3.33802C6.66199 3.64494 6.63409 3.88387 6.60746 4.05499C6.58083 4.22612 6.54102 4.36479 6.48795 4.47097C6.43478 4.57719 6.39941 4.6421 6.38167 4.66566C6.36397 4.68922 6.34922 4.70407 6.3375 4.7099C6.2608 4.73929 6.18103 4.75427 6.09848 4.75427C6.01579 4.75427 5.91553 4.71291 5.79754 4.63026C5.67958 4.54761 5.55716 4.43408 5.43027 4.28949C5.30338 4.14487 5.16027 3.94277 5.0009 3.68316C4.84164 3.42355 4.6764 3.11673 4.50527 2.76269L4.36369 2.50594C4.27518 2.34076 4.15427 2.10025 4.00085 1.78462C3.84733 1.46887 3.71163 1.16345 3.59367 0.868404C3.54652 0.744491 3.47568 0.650154 3.38128 0.585236L3.33698 0.558606C3.30753 0.535044 3.26025 0.510026 3.19539 0.483365C3.13045 0.456734 3.06268 0.437637 2.99181 0.425888L0.566585 0.443497C0.318758 0.443497 0.150606 0.499641 0.0620652 0.611773L0.0266304 0.664817C0.00892846 0.694361 0 0.741546 0 0.806494C0 0.871412 0.0177019 0.951086 0.0531367 1.04542C0.407175 1.87751 0.792183 2.67998 1.20816 3.45297C1.62414 4.22597 1.98562 4.84863 2.29238 5.32042C2.5992 5.79254 2.91195 6.23813 3.23061 6.65696C3.54928 7.07594 3.76021 7.34445 3.86342 7.46241C3.96674 7.58059 4.04791 7.66894 4.1069 7.72794L4.32822 7.94033C4.46984 8.08198 4.6778 8.25162 4.95219 8.44925C5.22665 8.64701 5.5305 8.8417 5.86389 9.03363C6.19734 9.22525 6.58526 9.38162 7.02787 9.50256C7.47042 9.62362 7.90115 9.6722 8.32014 9.64876H9.33805C9.54449 9.63094 9.70089 9.56602 9.80719 9.45398L9.84241 9.40962C9.8661 9.3744 9.88826 9.31968 9.90872 9.24605C9.92943 9.1723 9.93973 9.09105 9.93973 9.00266C9.93368 8.74897 9.95299 8.52034 9.99714 8.31678C10.0413 8.11329 10.0915 7.95986 10.1478 7.85653C10.204 7.7533 10.2674 7.66618 10.338 7.59556C10.4087 7.52478 10.4592 7.48191 10.4887 7.46715C10.5181 7.4523 10.5416 7.44223 10.5593 7.43618C10.7009 7.389 10.8676 7.43469 11.0595 7.57349C11.2513 7.71216 11.4312 7.88338 11.5995 8.08687C11.7677 8.29055 11.9698 8.51907 12.2058 8.77275C12.4419 9.02653 12.6484 9.21518 12.8253 9.33928L13.0023 9.44549C13.1205 9.51636 13.2739 9.58127 13.4627 9.64027C13.6513 9.69924 13.8164 9.71399 13.9583 9.68451L16.2241 9.64917C16.4482 9.64917 16.6226 9.61206 16.7463 9.53843C16.8702 9.46468 16.9439 9.38342 16.9676 9.29504C16.9913 9.20656 16.9926 9.10617 16.9721 8.99395C16.9511 8.882 16.9304 8.80372 16.9098 8.75948Z" fill="#B0B0B0"/>
</svg>
